<svg width="34" height="30" viewBox="0 0 34 30" fill="none" xmlns="http://www.w3.org/2000/svg">
<path fill-rule="evenodd" clip-rule="evenodd" d="M33.3408 28.0636L30.9504 13.6623C30.8877 13.274 30.6887 12.9208 30.389 12.6661C30.0893 12.4114 29.7087 12.2719 29.3154 12.2727H23.0726V13.38H29.3154C29.584 13.38 29.8145 13.5764 29.8595 13.8436L32.2513 28.2477C32.2638 28.3268 32.2592 28.4077 32.2376 28.4849C32.216 28.562 32.178 28.6336 32.1262 28.6947C32.0745 28.7558 32.0101 28.805 31.9375 28.839C31.865 28.8729 31.7859 28.8908 31.7058 28.8914H2.29355C2.21334 28.8913 2.13411 28.8737 2.06137 28.8399C1.98864 28.8061 1.92413 28.7569 1.87235 28.6956C1.82057 28.6344 1.78276 28.5626 1.76153 28.4852C1.74031 28.4079 1.73619 28.3268 1.74946 28.2477L4.14128 13.8436C4.16229 13.7144 4.22853 13.5968 4.32819 13.5119C4.42785 13.427 4.55444 13.3802 4.68537 13.38H10.9267V12.2727H4.68673C4.29387 12.2722 3.91368 12.4116 3.61431 12.666C3.31494 12.9204 3.11598 13.2731 3.05309 13.6609L0.659912 28.065C0.619179 28.3028 0.630897 28.5465 0.694247 28.7793C0.757596 29.0121 0.871048 29.2282 1.02666 29.4125C1.18227 29.5968 1.37628 29.7449 1.59512 29.8464C1.81396 29.9478 2.05233 30.0003 2.29355 30L31.7072 29.9986C31.9485 29.999 32.1871 29.9465 32.406 29.8449C32.625 29.7434 32.819 29.5951 32.9747 29.4107C33.1303 29.2262 33.2437 29.0099 33.307 28.777C33.3702 28.5441 33.3818 28.3001 33.3408 28.0623V28.0636Z" fill="#EE2E24"/>
<path d="M17.0004 19.0909C17.1504 19.0909 17.2908 19.0227 17.3904 18.9041C17.6536 18.5905 23.8186 11.1914 23.8186 7.29955C23.8186 3.26864 20.7667 0 17.0004 0C13.234 0 10.1822 3.26864 10.1822 7.29955C10.1822 11.1914 16.3472 18.5905 16.6104 18.9041C16.6577 18.9619 16.7172 19.0086 16.7846 19.0409C16.852 19.0732 16.9256 19.0902 17.0004 19.0909ZM17.0004 1.12364C20.1845 1.12636 22.7658 3.89045 22.7686 7.29955C22.7686 9.97636 18.9136 15.3068 17.0004 17.6795C15.0872 15.3068 11.2322 9.97773 11.2322 7.29955C11.2349 3.89045 13.8163 1.12636 17.0004 1.12227V1.12364Z" fill="#EE2E24"/>
<path d="M21.0913 6.81818C21.0913 6.28096 20.9855 5.74899 20.7799 5.25266C20.5743 4.75633 20.2729 4.30535 19.8931 3.92548C19.5132 3.5456 19.0622 3.24427 18.5659 3.03868C18.0696 2.83309 17.5376 2.72728 17.0004 2.72728C16.4631 2.72728 15.9312 2.83309 15.4348 3.03868C14.9385 3.24427 14.4875 3.5456 14.1077 3.92548C13.7278 4.30535 13.4264 4.75633 13.2209 5.25266C13.0153 5.74899 12.9095 6.28096 12.9095 6.81818C12.9095 7.90316 13.3405 8.9437 14.1077 9.71089C14.8748 10.4781 15.9154 10.9091 17.0004 10.9091C18.0853 10.9091 19.1259 10.4781 19.8931 9.71089C20.6603 8.9437 21.0913 7.90316 21.0913 6.81818ZM14.0781 6.81818C14.0781 6.04315 14.386 5.29986 14.934 4.75183C15.482 4.20379 16.2253 3.89591 17.0004 3.89591C17.7754 3.89591 18.5187 4.20379 19.0667 4.75183C19.6148 5.29986 19.9226 6.04315 19.9226 6.81818C19.9226 7.59322 19.6148 8.33651 19.0667 8.88454C18.5187 9.43258 17.7754 9.74046 17.0004 9.74046C16.2253 9.74046 15.482 9.43258 14.934 8.88454C14.386 8.33651 14.0781 7.59322 14.0781 6.81818Z" fill="#F99B2A"/>
<path fill-rule="evenodd" clip-rule="evenodd" d="M17.0004 20.4545H19.7276V21.8182H17.0004V20.4545ZM12.9095 20.4545H14.2731V21.8182H12.9095V20.4545ZM21.0913 20.4545H22.4549V21.8182H21.0913V20.4545Z" fill="#9A9A9C"/>
</svg>
