<svg width="22" height="30" viewBox="0 0 22 30" fill="none" xmlns="http://www.w3.org/2000/svg">
<g clip-path="url(#clip0_2494_449)">
<path d="M12.0655 0C12.5401 0.0878906 13.0265 0.158203 13.4952 0.275391C14.837 0.609375 15.9796 1.2832 16.9112 2.30859C16.9757 2.37891 17.046 2.45508 17.128 2.50781C18.2354 3.16992 18.7686 4.21289 18.8565 5.4375C18.9503 6.76758 18.9034 8.10938 18.9327 9.44531C18.9386 9.66211 18.9737 9.89062 19.0323 10.1016C19.3136 11.0684 18.5694 12.1113 17.503 12.1875C17.2569 12.2051 17.1925 12.2812 17.1456 12.5215C16.8409 14.2559 15.9561 15.6094 14.4561 16.5527C14.1104 16.7695 14.0987 17.1211 14.3858 17.4082C14.9893 18 15.6866 18.4043 16.5069 18.6387C17.2276 18.8496 17.919 19.1426 18.6339 19.3711C19.8058 19.752 20.5206 20.5312 20.7491 21.75C20.878 22.4414 21.0245 23.127 21.1593 23.8184C21.2237 24.1641 21.1007 24.3867 20.837 24.4336C20.5733 24.4863 20.3741 24.3223 20.3038 23.9824C20.1515 23.25 20.0108 22.5117 19.8526 21.7734C19.7589 21.3281 19.5597 20.9297 19.1202 20.5898C18.8741 21.2988 18.6104 21.9668 18.4112 22.6582C18.1476 23.5723 18.0245 24.5039 18.0479 25.459C18.0772 26.5488 18.0538 27.6445 18.0538 28.7402C18.0538 28.8574 18.0538 28.9688 18.0538 29.1035C18.8858 29.1035 19.6944 29.1387 20.4972 29.0918C21.0011 29.0625 21.212 28.6875 21.1183 28.1309C21.0128 27.5332 20.8839 26.9473 20.7667 26.3496C20.755 26.2852 20.7374 26.2148 20.7315 26.1504C20.6905 25.8223 20.8077 25.6113 21.0655 25.5586C21.3233 25.5059 21.5343 25.6758 21.5987 26.0098C21.6983 26.5078 21.7979 27.0059 21.88 27.5039C21.9327 27.832 22.0089 28.1602 21.9913 28.4883C21.9444 29.2852 21.546 29.7305 20.7784 29.9355C20.7257 29.9531 20.6729 29.9766 20.6202 30C16.5948 30 12.5753 30 8.54989 30C8.37411 29.8418 8.19833 29.6836 8.30966 29.4082C8.41513 29.1387 8.64364 29.1152 8.88974 29.1211C8.94833 29.1211 9.00692 29.1211 9.06552 29.1211C11.6436 29.1211 14.2218 29.1211 16.7999 29.1211C16.9171 29.1211 17.0284 29.1211 17.1632 29.1211C17.169 28.998 17.1749 28.9043 17.1749 28.8105C17.1749 27.7148 17.1749 26.625 17.1749 25.5293C17.1749 25.1309 17.1456 24.7266 17.1925 24.3281C17.3448 22.9805 17.6964 21.6855 18.2647 20.4551C18.2999 20.3789 18.3233 20.2969 18.3585 20.2031C17.38 19.8633 16.4308 19.5293 15.4757 19.1953C15.3292 19.6523 15.2061 20.0684 15.0597 20.4785C14.503 22.0137 13.7237 23.4023 12.4991 24.5156C11.8663 25.0898 10.9815 25.1367 10.337 24.5977C10.1085 24.4043 9.89169 24.1875 9.68661 23.9648C8.70224 22.8867 8.05184 21.6152 7.57138 20.2559C7.45419 19.916 7.34872 19.5703 7.23153 19.207C6.27645 19.541 5.33309 19.875 4.3663 20.209C4.45419 20.4082 4.53036 20.5723 4.60067 20.7422C5.18661 22.1602 5.57919 23.6191 5.56161 25.166C5.54989 26.3789 5.56161 27.5859 5.56161 28.7988C5.56161 28.8984 5.56161 29.0039 5.56161 29.1211C5.90731 29.1211 6.212 29.127 6.51083 29.1211C6.75692 29.1152 6.98544 29.1387 7.09677 29.4082C7.20809 29.6777 7.03231 29.8418 6.85653 30.0059C5.29208 30.0059 3.73348 30.0059 2.16903 30.0059C1.712 29.8828 1.27254 29.7422 0.991293 29.3145C0.698324 28.8574 0.669027 28.3594 0.768637 27.8496C1.17879 25.7285 1.60067 23.6133 2.04012 21.5039C2.25106 20.4844 2.90145 19.8105 3.85653 19.4531C4.90536 19.0605 5.98934 18.7559 7.02059 18.3164C7.5538 18.0879 8.00497 17.666 8.46786 17.3027C8.64364 17.1621 8.52645 16.7109 8.30966 16.5762C7.18466 15.8789 6.36434 14.9238 5.90145 13.6875C5.74911 13.2891 5.65536 12.8672 5.57333 12.4512C5.53231 12.2578 5.46786 12.2051 5.28036 12.1875C4.44247 12.1289 3.81551 11.584 3.66317 10.7578C3.62801 10.5527 3.66903 10.3359 3.69247 10.125C3.72176 9.87891 3.78622 9.63281 3.79208 9.38086C3.82137 8.47266 3.79208 7.56445 3.86239 6.66211C3.93856 5.68945 4.26669 4.78125 4.73544 3.92578C4.86434 3.68555 5.1163 3.60938 5.33309 3.7207C5.55575 3.83203 5.63192 4.07812 5.49716 4.35352C5.15145 5.04492 4.84676 5.75977 4.77059 6.5332C4.69442 7.35352 4.6827 8.17969 4.64169 9.01172C4.93465 8.9707 5.16903 8.95312 5.39169 8.89453C5.46786 8.87695 5.54403 8.76562 5.57333 8.68359C5.8663 7.74609 6.5577 7.1543 7.51864 7.07812C7.77645 7.05469 8.04598 7.08398 8.30966 7.11328C10.3311 7.33008 12.1651 6.89062 13.7647 5.58984C14.3155 5.14453 14.8429 5.23242 15.2296 5.81836C15.5518 6.31055 15.962 6.63281 16.5597 6.73242C17.0577 6.81445 17.2276 7.05469 17.2335 7.57031C17.2335 7.99805 17.2335 8.42578 17.2335 8.86523C17.503 8.91797 17.7608 8.96484 18.0304 9.01172C18.0362 8.94141 18.0479 8.86523 18.0479 8.79492C18.0304 7.68164 18.0655 6.56836 17.9776 5.46094C17.9015 4.51172 17.4854 3.70312 16.5948 3.2168C16.5011 3.16992 16.4308 3.08203 16.3604 3C14.9015 1.37109 13.044 0.767578 10.9112 0.908203C9.30575 1.01367 7.91708 1.64648 6.73934 2.74805C6.48739 2.98242 6.22372 2.98828 6.04794 2.78906C5.86044 2.57812 5.90145 2.34375 6.15341 2.09766C7.40731 0.902344 8.90145 0.240234 10.6183 0.0585938C10.6944 0.0527344 10.7706 0.0234375 10.8409 0.00585938C11.2452 0 11.6554 0 12.0655 0ZM14.4151 6.19336C14.3038 6.27539 14.2276 6.32812 14.1515 6.39258C13.1085 7.21289 11.9366 7.7168 10.63 7.92773C9.69247 8.08008 8.76669 8.03906 7.82919 7.95703C6.9913 7.88086 6.39364 8.43164 6.38192 9.26953C6.3702 10.0898 6.3702 10.9102 6.38192 11.7305C6.3995 12.7559 6.72762 13.6816 7.32528 14.5137C8.462 16.0957 10.5831 16.9688 12.7218 16.377C14.5675 15.8672 16.1495 14.127 16.2726 12.2344C16.3604 10.8926 16.3194 9.54492 16.337 8.19727C16.337 7.99219 16.337 7.79297 16.337 7.57617C15.4698 7.42969 14.8722 6.9375 14.4151 6.19336ZM3.61044 20.5957C3.19442 20.8711 3.0245 21.2168 2.93075 21.6035C2.79012 22.1895 2.65536 22.7812 2.53817 23.373C2.22176 24.9492 1.91122 26.5254 1.60653 28.1074C1.48348 28.7637 1.77059 29.0977 2.4327 29.1152C2.82528 29.127 3.212 29.1211 3.60458 29.1211C3.95028 29.1211 4.29598 29.1211 4.66512 29.1211C4.66512 28.9746 4.66512 28.8691 4.66512 28.7637C4.66512 27.6328 4.64169 26.502 4.67098 25.3652C4.69442 24.4395 4.56551 23.5371 4.3077 22.6523C4.11434 21.9668 3.85653 21.2988 3.61044 20.5957ZM13.3136 17.168C12.0011 17.5547 10.7179 17.543 9.42294 17.1152C9.45224 17.373 10.5714 18.5391 11.3565 19.166C12.0186 18.5156 12.6925 17.8828 13.3136 17.168ZM14.5382 18.6855C14.2745 18.4629 14.0284 18.2578 13.753 18.0234C13.1729 18.6504 12.6046 19.2598 12.0245 19.8926C12.2354 20.127 12.505 20.4199 12.7686 20.7188C12.9268 20.9004 13.0382 20.8535 13.1554 20.6777C13.6065 20.0273 14.0636 19.3711 14.5382 18.6855ZM8.96591 18.0527C8.66122 18.2988 8.41513 18.498 8.14559 18.7148C8.6202 19.4004 9.0831 20.0742 9.56356 20.7363C9.60458 20.7891 9.79794 20.8184 9.83895 20.7773C10.1436 20.4727 10.4308 20.1445 10.6534 19.8984C10.0792 19.2656 9.53427 18.668 8.96591 18.0527ZM11.3565 22.459C11.0987 22.3828 10.9991 22.5176 10.9405 22.752C10.8761 23.0273 10.7765 23.291 10.7061 23.5605C10.6886 23.625 10.6827 23.7246 10.7237 23.7656C10.9347 24 11.1925 24.1465 11.5265 24.0762C11.9249 23.9941 12.0772 23.7422 11.96 23.3613C11.9015 23.1562 11.8194 22.957 11.7784 22.7461C11.7257 22.5 11.6085 22.3828 11.3565 22.459ZM5.48544 9.7793C5.08114 9.76758 4.78231 9.9082 4.60067 10.2305C4.46005 10.4707 4.48348 10.7227 4.6534 10.9453C4.85848 11.2148 5.12801 11.3555 5.48544 11.3027C5.48544 10.793 5.48544 10.3008 5.48544 9.7793ZM17.2335 11.3203C17.6378 11.3262 17.9308 11.1973 18.1183 10.8691C18.2589 10.6289 18.2354 10.377 18.0714 10.1543C17.8663 9.87891 17.5968 9.74414 17.2335 9.79102C17.2335 10.3008 17.2335 10.793 17.2335 11.3203ZM10.6827 21.1758C10.9112 21.5859 10.9112 21.5684 11.5851 21.5684C11.8604 21.5684 11.8956 21.3633 12.0186 21.1992C11.7901 20.9414 11.5675 20.7012 11.339 20.4492C11.1104 20.707 10.8995 20.9414 10.6827 21.1758ZM12.7628 22.9746C13.0792 22.4707 13.3487 22.0371 13.6476 21.5625C13.378 21.6328 13.1847 21.709 12.9854 21.7266C12.6163 21.7617 12.4581 21.9727 12.5577 22.3184C12.6163 22.5059 12.6749 22.6875 12.7628 22.9746ZM9.962 22.9453C10.0499 22.6582 10.1671 22.4414 10.1671 22.2188C10.1671 22.0605 10.0499 21.8086 9.92099 21.7559C9.68075 21.6504 9.38778 21.6562 9.11239 21.6152C9.23544 21.832 9.35849 22.0547 9.49325 22.2656C9.62802 22.4766 9.7745 22.6816 9.962 22.9453Z" fill="#EE2E24"/>
<path d="M15.7686 25.1836C16.419 25.3477 16.6065 25.5879 16.6065 26.2383C16.6065 26.7246 16.6124 27.2168 16.6065 27.7031C16.5948 28.3125 16.2901 28.6172 15.6807 28.6231C14.96 28.6289 14.2335 28.6348 13.5128 28.6289C12.8741 28.6231 12.5694 28.3125 12.5635 27.668C12.5577 27.1992 12.5635 26.7305 12.5635 26.2617C12.5635 25.582 12.7393 25.3594 13.3897 25.1895C13.4483 24.1758 13.876 23.6543 14.6202 23.6836C15.3585 23.707 15.7686 24.2461 15.7686 25.1836ZM13.4542 27.7207C14.2276 27.7207 14.96 27.7207 15.6983 27.7207C15.6983 27.1699 15.6983 26.6426 15.6983 26.0977C14.9425 26.0977 14.2042 26.0977 13.4542 26.0977C13.4542 26.6426 13.4542 27.1699 13.4542 27.7207ZM14.9249 25.0137C14.9307 24.9668 14.9366 24.9258 14.9483 24.8789C14.8428 24.7734 14.755 24.6211 14.6319 24.5801C14.4561 24.5215 14.3096 24.6328 14.2803 24.832C14.2511 25.0254 14.3389 25.1836 14.5323 25.1836C14.6612 25.1836 14.7901 25.0723 14.9249 25.0137Z" fill="#F99B2A"/>
</g>
<defs>
<clipPath id="clip0_2494_449">
<rect width="21.2812" height="30" fill="white" transform="translate(0.710037)"/>
</clipPath>
</defs>
</svg>
